# xmcd CD database file
#
# Track frame offsets:
#	150
#	52906
#	93906
#	136022
#	198000
#
# Disc length: 3421 seconds
#
# Revision: 0
# Processed by: cddbd v1.5.2PL0 Copyright (c) Steve Scherf et al.
# Submitted via: CDex 1.51
#
DISCID=310d5b05
DTITLE=Miles Davis - The Complete Miles Davis at Montreux 1973-1991 CD3
DYEAR=1900
DGENRE=Jazz
TTITLE0=Speak - That's What Happend
TTITLE1=Star People
TTITLE2=What It Is
TTITLE3=It Gets Better
TTITLE4=Something's On Your Mind
EXTD=
EXTT0=
EXTT1=
EXTT2=
EXTT3=
EXTT4=
PLAYORDER=
